<svg width="461" height="418" viewBox="0 0 461 418" fill="none" xmlns="http://www.w3.org/2000/svg">
<g clip-path="url(#clip0_84_2593)">
<path d="M21.421 398.31C27.8155 411.191 41.387 416.72 41.387 416.72C41.387 416.72 44.5909 401.366 38.1964 388.485C31.8019 375.604 18.2304 370.075 18.2304 370.075C18.2304 370.075 15.0265 385.429 21.421 398.31Z" fill="#2F2E41"/>
<path d="M25.8163 394.072C37.361 401.616 41.8073 416.601 41.8073 416.601C41.8073 416.601 27.5358 419.355 15.991 411.81C4.44625 404.266 0 389.281 0 389.281C0 389.281 14.2715 386.528 25.8163 394.072Z" fill="#088AB2"/>
<path d="M284.651 20.0669H212.62V21.1846H284.651V20.0669Z" fill="#F2F2F2"/>
<path d="M265.1 20.9053H264.071V31.2439H265.1V20.9053Z" fill="#F2F2F2"/>
<path d="M233.715 20.9053H232.686V31.2439H233.715V20.9053Z" fill="#F2F2F2"/>
<path d="M321.181 73.7158H249.15V74.8335H321.181V73.7158Z" fill="#F2F2F2"/>
<path d="M269.73 63.6567H268.701V73.9954H269.73V63.6567Z" fill="#F2F2F2"/>
<path d="M301.115 63.6567H300.086V73.9954H301.115V63.6567Z" fill="#F2F2F2"/>
<path d="M416.88 98.8643H344.849V99.9819H416.88V98.8643Z" fill="#F2F2F2"/>
<path d="M365.429 88.8047H364.4V99.1433H365.429V88.8047Z" fill="#F2F2F2"/>
<path d="M396.814 88.8047H395.785V99.1433H396.814V88.8047Z" fill="#F2F2F2"/>
<path d="M409.677 358.168H337.646V359.286H409.677V358.168Z" fill="#F2F2F2"/>
<path d="M358.226 348.109H357.197V358.448H358.226V348.109Z" fill="#F2F2F2"/>
<path d="M389.611 348.109H388.582V358.448H389.611V348.109Z" fill="#F2F2F2"/>
<path d="M286.709 178.779H214.678V179.896H286.709V178.779Z" fill="#F2F2F2"/>
<path d="M235.259 168.72H234.229V179.058H235.259V168.72Z" fill="#F2F2F2"/>
<path d="M266.644 168.72H265.615V179.058H266.644V168.72Z" fill="#F2F2F2"/>
<path d="M309.348 313.46H237.316V314.578H309.348V313.46Z" fill="#F2F2F2"/>
<path d="M257.897 303.401H256.868V313.74H257.897V303.401Z" fill="#F2F2F2"/>
<path d="M289.282 303.401H288.253V313.74H289.282V303.401Z" fill="#F2F2F2"/>
<path d="M424.598 272.665H352.566V273.782H424.598V272.665Z" fill="#F2F2F2"/>
<path d="M373.147 262.605H372.118V272.944H373.147V262.605Z" fill="#F2F2F2"/>
<path d="M404.532 262.605H403.503V272.944H404.532V262.605Z" fill="#F2F2F2"/>
<path d="M186.283 392.412H64.4546V391.46H185.406V345.288H74.6964L69.3182 333.118L70.1085 332.707L75.248 344.336H186.283V392.412Z" fill="#2F2E41"/>
<path d="M80.6692 415.736C85.7518 415.736 89.8721 411.261 89.8721 405.74C89.8721 400.219 85.7518 395.744 80.6692 395.744C75.5866 395.744 71.4663 400.219 71.4663 405.74C71.4663 411.261 75.5866 415.736 80.6692 415.736Z" fill="#3F3D56"/>
<path d="M171.383 415.736C176.466 415.736 180.586 411.261 180.586 405.74C180.586 400.219 176.466 395.744 171.383 395.744C166.301 395.744 162.18 400.219 162.18 405.74C162.18 411.261 166.301 415.736 171.383 415.736Z" fill="#3F3D56"/>
<path d="M278.312 199.634C281.458 199.634 284.009 196.863 284.009 193.446C284.009 190.028 281.458 187.258 278.312 187.258C275.165 187.258 272.615 190.028 272.615 193.446C272.615 196.863 275.165 199.634 278.312 199.634Z" fill="#3F3D56"/>
<path d="M199.313 329.581H62.3775L32.7478 224.386H229.827L229.648 225.005L199.313 329.581ZM63.0259 328.629H198.671L228.633 225.338H33.9324L63.0259 328.629Z" fill="#2F2E41"/>
<path d="M188.624 324.107H68.3484L42.3235 230.812H215.425L215.268 231.361L188.624 324.107Z" fill="#F2F2F2"/>
<path d="M232.283 214.988L231.435 214.744L237.219 191.066H270.862V192.018H237.893L232.283 214.988Z" fill="#2F2E41"/>
<path d="M219.979 256.277H42.3228V257.229H219.979V256.277Z" fill="#2F2E41"/>
<path d="M209.805 291.35H52.2014V292.302H209.805V291.35Z" fill="#2F2E41"/>
<path d="M131.723 224.861H130.847V329.104H131.723V224.861Z" fill="#2F2E41"/>
<path d="M170.964 224.832L164.672 329.072L165.547 329.135L171.839 224.894L170.964 224.832Z" fill="#2F2E41"/>
<path d="M91.624 224.831L90.7493 224.893L97.0043 329.136L97.8791 329.074L91.624 224.831Z" fill="#2F2E41"/>
<path d="M461 416.339H0V417.457H461V416.339Z" fill="#2F2E41"/>
<path d="M306.344 34.5791C306.344 34.5791 313.866 57.8306 309.237 61.4077C304.609 64.9849 324.858 94.1982 324.858 94.1982L349.158 87.0439L335.851 62.6001C335.851 62.6001 334.115 38.1562 334.115 34.5791C334.115 31.0019 306.344 34.5791 306.344 34.5791Z" fill="#A0616A"/>
<path opacity="0.1" d="M306.344 34.5791C306.344 34.5791 313.866 57.8306 309.237 61.4077C304.609 64.9849 324.858 94.1982 324.858 94.1982L349.158 87.0439L335.851 62.6001C335.851 62.6001 334.115 38.1562 334.115 34.5791C334.115 31.0019 306.344 34.5791 306.344 34.5791Z" fill="black"/>
<path d="M293.719 200.32C293.719 200.32 291.524 230.13 293.719 245.631C295.915 261.132 299.208 304.058 299.208 304.058C299.208 304.058 299.208 385.14 311.284 386.332C323.36 387.524 332.142 388.717 333.24 383.947C334.337 379.178 327.751 376.793 331.044 374.408C334.337 372.023 335.435 363.677 331.044 354.138C326.653 344.599 331.044 248.016 331.044 248.016L351.902 308.827C351.902 308.827 354.098 358.907 356.293 366.061C358.489 373.216 354.098 386.332 361.782 387.524C369.467 388.717 378.249 381.562 382.64 379.178C387.031 376.793 376.053 376.793 378.249 375.601C380.444 374.408 387.031 370.831 384.836 369.639C382.64 368.446 380.444 311.212 380.444 311.212C380.444 311.212 374.407 188.993 366.722 184.223C359.038 179.454 354.098 187.669 354.098 187.669L293.719 200.32Z" fill="#2F2E41"/>
<path d="M313.48 381.562V391.102C313.48 391.102 303.6 417.032 313.48 417.032C323.36 417.032 331.044 419.719 331.044 416.142V383.947L313.48 381.562Z" fill="#2F2E41"/>
<path d="M378.249 381.545V391.084C378.249 391.084 388.129 417.015 378.249 417.015C368.369 417.015 360.685 419.702 360.685 416.124V383.93L378.249 381.545Z" fill="#2F2E41"/>
<path d="M321.713 51.8686C332.626 51.8686 341.473 42.2594 341.473 30.4057C341.473 18.5521 332.626 8.94287 321.713 8.94287C310.8 8.94287 301.953 18.5521 301.953 30.4057C301.953 42.2594 310.8 51.8686 321.713 51.8686Z" fill="#A0616A"/>
<path d="M315.675 70.3506C315.675 70.3506 321.164 88.2363 329.946 84.6592L338.729 81.082L354.098 195.551C354.098 195.551 342.022 214.629 324.458 202.705C306.893 190.781 315.675 70.3506 315.675 70.3506Z" fill="#088AB2"/>
<path d="M331.044 66.7734L335.984 55.4458C335.984 55.4458 365.076 70.3506 369.467 75.1201C373.858 79.8896 373.858 87.0439 373.858 87.0439L366.173 116.853C366.173 116.853 368.369 182.434 368.369 184.819C368.369 187.204 376.053 200.32 370.564 195.551C365.076 190.781 363.978 186.012 359.587 193.166C355.195 200.32 345.315 208.667 345.315 208.667L331.044 66.7734Z" fill="#3F3D56"/>
<path d="M369.467 152.625L366.173 186.012C366.173 186.012 346.413 205.09 350.804 206.282C355.196 207.475 357.391 202.705 357.391 202.705C357.391 202.705 365.076 211.052 369.467 206.282C373.858 201.513 384.836 156.202 384.836 156.202L369.467 152.625Z" fill="#A0616A"/>
<path d="M322.134 0.0725778C317.753 -0.0975178 313.065 -0.181658 309.372 2.3824C307.673 3.66919 306.182 5.254 304.962 7.07197C301.364 12.0113 298.256 18.2261 299.592 24.3545L301.144 23.697C301.144 25.3329 300.809 26.9483 300.164 28.4263C300.383 27.7361 301.114 28.8519 300.919 29.5501L299.209 35.6419C302.019 34.5228 305.515 36.7885 305.943 40.0062C306.138 32.9306 306.814 24.817 312.099 20.674C314.763 18.5846 318.136 17.9468 321.381 17.3804C324.375 16.8579 327.513 16.3596 330.38 17.4301C333.248 18.5005 335.689 21.6857 335.039 24.9023C336.361 24.4077 337.84 25.4085 338.493 26.7513C339.147 28.0942 339.181 29.6783 339.201 31.197C340.61 32.2788 342.214 30.1306 342.788 28.363C344.136 24.2139 345.335 19.7974 344.609 15.4688C343.882 11.1402 340.635 7.00353 336.584 6.98885C337.076 6.40225 337.338 5.63092 337.316 4.838L333.977 4.53159C334.824 4.40123 335.604 3.95483 336.182 3.26885C334.841 4.87102 324.302 0.156745 322.134 0.0725778Z" fill="#2F2E41"/>
<path d="M321.164 63.1963C321.164 63.1963 312.227 53.6843 309.011 54.2669C305.795 54.8496 301.404 63.1963 301.404 63.1963C301.404 63.1963 275.057 72.7353 276.155 82.2744C277.253 91.8134 289.328 138.316 289.328 138.316C289.328 138.316 299.208 194.358 290.426 200.32C281.644 206.282 332.142 221.783 333.24 214.629C334.338 207.475 336.533 135.932 333.24 125.2C329.946 114.469 321.164 63.1963 321.164 63.1963Z" fill="#3F3D56"/>
<path d="M359.587 82.2744H373.161C373.161 82.2744 382.64 127.585 383.738 132.354C384.836 137.124 387.031 159.779 385.933 159.779C384.836 159.779 362.88 155.01 362.88 158.587L359.587 82.2744Z" fill="#3F3D56"/>
<path d="M359.127 194.478H307.162C302.091 169.14 301.667 144.659 307.162 121.27H359.127C350.741 144.238 350.217 168.552 359.127 194.478Z" fill="#F2F2F2"/>
<path d="M286.035 163.356L301.404 170.51C301.404 170.51 331.044 175.28 331.044 162.164C331.044 149.048 301.404 156.202 301.404 156.202L291.523 152.771L286.035 163.356Z" fill="#A0616A"/>
<path d="M289.328 75.1201L276.155 78.6973L266.275 141.894C266.275 141.894 262.982 158.587 268.471 159.779C273.96 160.972 289.328 170.511 289.328 170.511C289.328 170.511 291.524 152.625 295.915 152.625L284.937 143.086L291.524 101.353L289.328 75.1201Z" fill="#3F3D56"/>
<path d="M103.03 197.221H30.9983V198.338H103.03V197.221Z" fill="#F2F2F2"/>
<path d="M51.5788 187.162H50.5498V197.5H51.5788V187.162Z" fill="#F2F2F2"/>
<path d="M82.9638 187.162H81.9348V197.5H82.9638V187.162Z" fill="#F2F2F2"/>
<path d="M128.24 31.8027H56.2092V32.9204H128.24V31.8027Z" fill="#F2F2F2"/>
<path d="M108.689 32.6411H107.66V42.9797H108.689V32.6411Z" fill="#F2F2F2"/>
<path d="M77.3042 32.6411H76.2751V42.9797H77.3042V32.6411Z" fill="#F2F2F2"/>
<path d="M200.786 141.895H128.755V143.013H200.786V141.895Z" fill="#F2F2F2"/>
<path d="M181.235 142.733H180.206V153.072H181.235V142.733Z" fill="#F2F2F2"/>
<path d="M149.85 142.733H148.821V153.072H149.85V142.733Z" fill="#F2F2F2"/>
<path d="M78.3333 141.336H6.302V142.454H78.3333V141.336Z" fill="#F2F2F2"/>
<path d="M58.7819 142.174H57.7529V152.513H58.7819V142.174Z" fill="#F2F2F2"/>
<path d="M27.3969 142.174H26.3679V152.513H27.3969V142.174Z" fill="#F2F2F2"/>
<path d="M164.771 85.4517H92.7395V86.5693H164.771V85.4517Z" fill="#F2F2F2"/>
<path d="M113.32 75.3926H112.291V85.7312H113.32V75.3926Z" fill="#F2F2F2"/>
<path d="M144.705 75.3926H143.676V85.7312H144.705V75.3926Z" fill="#F2F2F2"/>
</g>
<defs>
<clipPath id="clip0_84_2593">
<rect width="461" height="418" fill="white"/>
</clipPath>
</defs>
</svg>
