<svg width="24" height="24" viewBox="0 0 24 24" fill="none" xmlns="http://www.w3.org/2000/svg">
<path fill-rule="evenodd" clip-rule="evenodd" d="M16 3C16 2.73478 15.9157 2.48043 15.7657 2.29289C15.6157 2.10536 15.4122 2 15.2 2H2.4C2.18783 2 1.98434 2.10536 1.83431 2.29289C1.68429 2.48043 1.6 2.73478 1.6 3V21C1.6 21.2652 1.68429 21.5196 1.83431 21.7071C1.98434 21.8946 2.18783 22 2.4 22H15.2C15.4122 22 15.6157 21.8946 15.7657 21.7071C15.9157 21.5196 16 21.2652 16 21V17C16 16.7348 16.0843 16.4804 16.2343 16.2929C16.3843 16.1054 16.5878 16 16.8 16C17.0122 16 17.2157 16.1054 17.3657 16.2929C17.5157 16.4804 17.6 16.7348 17.6 17V21C17.6 21.7956 17.3471 22.5587 16.8971 23.1213C16.447 23.6839 15.8365 24 15.2 24H2.4C1.76348 24 1.15303 23.6839 0.702944 23.1213C0.252856 22.5587 0 21.7956 0 21L0 3C0 2.20435 0.252856 1.44129 0.702944 0.87868C1.15303 0.316071 1.76348 0 2.4 0H15.2C15.8365 0 16.447 0.316071 16.8971 0.87868C17.3471 1.44129 17.6 2.20435 17.6 3V7C17.6 7.26522 17.5157 7.51957 17.3657 7.70711C17.2157 7.89464 17.0122 8 16.8 8C16.5878 8 16.3843 7.89464 16.2343 7.70711C16.0843 7.51957 16 7.26522 16 7V3Z" fill="black"/>
<path fill-rule="evenodd" clip-rule="evenodd" d="M6.63347 12.7083C6.55897 12.6154 6.49986 12.505 6.45953 12.3836C6.4192 12.2621 6.39844 12.1318 6.39844 12.0003C6.39844 11.8688 6.4192 11.7385 6.45953 11.617C6.49986 11.4955 6.55897 11.3852 6.63347 11.2923L11.4335 5.29229C11.5837 5.10451 11.7874 4.99902 11.9999 4.99902C12.2123 4.99902 12.416 5.10451 12.5663 5.29229C12.7165 5.48006 12.8009 5.73474 12.8009 6.00029C12.8009 6.26584 12.7165 6.52051 12.5663 6.70829L9.13107 11.0003H23.1999C23.412 11.0003 23.6155 11.1056 23.7656 11.2932C23.9156 11.4807 23.9999 11.7351 23.9999 12.0003C23.9999 12.2655 23.9156 12.5199 23.7656 12.7074C23.6155 12.8949 23.412 13.0003 23.1999 13.0003H9.13107L12.5663 17.2923C12.6406 17.3853 12.6997 17.4956 12.7399 17.6171C12.7802 17.7386 12.8009 17.8688 12.8009 18.0003C12.8009 18.1318 12.7802 18.262 12.7399 18.3835C12.6997 18.5049 12.6406 18.6153 12.5663 18.7083C12.4919 18.8013 12.4036 18.875 12.3064 18.9253C12.2092 18.9757 12.1051 19.0015 11.9999 19.0015C11.8947 19.0015 11.7905 18.9757 11.6933 18.9253C11.5962 18.875 11.5078 18.8013 11.4335 18.7083L6.63347 12.7083Z" fill="black"/>
</svg>
