<svg width="26" height="26" viewBox="0 0 26 26" fill="currentColor" xmlns="http://www.w3.org/2000/svg">
<path d="M19.2499 10.9166C19.2499 9.25898 18.5914 7.66927 17.4193 6.49717C16.2472 5.32507 14.6575 4.66659 12.9999 4.66659C11.3423 4.66659 9.7526 5.32507 8.5805 6.49717C7.4084 7.66927 6.74992 9.25898 6.74992 10.9166V19.2499H19.2499V10.9166ZM21.3333 19.9447L21.7499 20.4999C21.808 20.5773 21.8433 20.6693 21.852 20.7656C21.8607 20.862 21.8424 20.9588 21.7991 21.0453C21.7558 21.1319 21.6894 21.2046 21.6071 21.2555C21.5248 21.3063 21.43 21.3333 21.3333 21.3333H4.66659C4.56986 21.3333 4.47505 21.3063 4.39277 21.2555C4.31049 21.2046 4.24399 21.1319 4.20074 21.0453C4.15748 20.9588 4.13917 20.862 4.14786 20.7656C4.15654 20.6693 4.19188 20.5773 4.24992 20.4999L4.66659 19.9447V10.9166C4.66659 8.70645 5.54456 6.58683 7.10736 5.02403C8.67017 3.46123 10.7898 2.58325 12.9999 2.58325C15.2101 2.58325 17.3297 3.46123 18.8925 5.02403C20.4553 6.58683 21.3333 8.70645 21.3333 10.9166V19.9447ZM10.3958 22.3749H15.6041C15.6041 23.0656 15.3297 23.728 14.8413 24.2163C14.353 24.7047 13.6906 24.9791 12.9999 24.9791C12.3093 24.9791 11.6469 24.7047 11.1585 24.2163C10.6701 23.728 10.3958 23.0656 10.3958 22.3749Z" fill="#2A2A2A"/>
</svg>
