<svg width="24" height="24" viewBox="0 0 24 24" fill="currentColor" xmlns="http://www.w3.org/2000/svg">
<path d="M11 21H3V3H9.175C9.35833 2.41667 9.71667 1.93734 10.25 1.562C10.7833 1.18667 11.3667 0.999335 12 1C12.6667 1 13.2627 1.18767 13.788 1.563C14.3133 1.93834 14.6673 2.41734 14.85 3H21V10H19V5H17V8H7V5H5V19H11V21ZM15.5 19.925L11.25 15.675L12.65 14.275L15.5 17.125L21.15 11.475L22.55 12.875L15.5 19.925ZM12 5C12.2833 5 12.521 4.904 12.713 4.712C12.905 4.52 13.0007 4.28267 13 4C13 3.71667 12.904 3.479 12.712 3.287C12.52 3.095 12.2827 2.99934 12 3C11.7167 3 11.479 3.096 11.287 3.288C11.095 3.48 10.9993 3.71733 11 4C11 4.28333 11.096 4.521 11.288 4.713C11.48 4.905 11.7173 5.00067 12 5Z" fill="#555555"/>
</svg>
