<svg width="24" height="24" viewBox="0 0 24 24" fill="currentColor" xmlns="http://www.w3.org/2000/svg">
<path d="M6.41645 6.22176V5.60136C6.41645 2.51892 8.90299 0 12 0C15.097 0 17.5836 2.51892 17.5836 5.60136V6.22354H21.3953C21.6258 6.22376 21.848 6.3057 22.0189 6.45349C22.1898 6.60128 22.2972 6.80439 22.3203 7.02348L23.9953 23.0223C24.0083 23.1458 23.9941 23.2706 23.9535 23.3885C23.913 23.5065 23.847 23.615 23.7599 23.7071C23.6727 23.7992 23.5663 23.8729 23.4476 23.9233C23.3288 23.9737 23.2003 23.9999 23.0703 24H0.929674C0.799696 23.9999 0.671186 23.9737 0.552424 23.9233C0.433663 23.8729 0.327283 23.7992 0.240139 23.7071C0.152994 23.615 0.0870185 23.5065 0.0464618 23.3885C0.00590514 23.2706 -0.0083331 23.1458 0.00466476 23.0223L1.67973 7.02348C1.70278 6.80439 1.81016 6.60128 1.98106 6.45349C2.15195 6.3057 2.3742 6.22376 2.60474 6.22354H6.41645V6.22176ZM8.27763 6.22176H15.7224V5.60136C15.7224 3.47885 14.0436 1.77765 12 1.77765C9.95642 1.77765 8.27763 3.47885 8.27763 5.60136V6.22354V6.22176ZM6.41645 7.99941H3.44786L1.95891 22.2206H22.0411L20.5503 7.99941H17.5836V10.6659C17.5836 10.9016 17.4855 11.1277 17.311 11.2944C17.1365 11.4611 16.8998 11.5547 16.653 11.5547C16.4062 11.5547 16.1695 11.4611 15.9949 11.2944C15.8204 11.1277 15.7224 10.9016 15.7224 10.6659V7.99941H8.27763V10.6659C8.27763 10.9016 8.17959 11.1277 8.00507 11.2944C7.83055 11.4611 7.59385 11.5547 7.34704 11.5547C7.10023 11.5547 6.86353 11.4611 6.68901 11.2944C6.51449 11.1277 6.41645 10.9016 6.41645 10.6659V7.99941Z" fill="#555555"/>
</svg>
