<svg width="40" height="41" viewBox="0 0 40 41" fill="none" xmlns="http://www.w3.org/2000/svg">
<path d="M19.9999 3.83325C17.8112 3.83325 15.644 4.26435 13.6219 5.10193C11.5998 5.9395 9.76245 7.16716 8.21481 8.71481C5.0892 11.8404 3.33325 16.0796 3.33325 20.4999C3.33325 24.9202 5.0892 29.1594 8.21481 32.285C9.76245 33.8327 11.5998 35.0603 13.6219 35.8979C15.644 36.7355 17.8112 37.1666 19.9999 37.1666C24.4202 37.1666 28.6594 35.4106 31.785 32.285C34.9106 29.1594 36.6666 24.9202 36.6666 20.4999C36.6666 18.3112 36.2355 16.144 35.3979 14.1219C34.5603 12.0998 33.3327 10.2624 31.785 8.71481C30.2374 7.16716 28.4001 5.9395 26.378 5.10193C24.3559 4.26435 22.1886 3.83325 19.9999 3.83325ZM11.7833 30.9666C12.4999 29.4666 16.8666 27.9999 19.9999 27.9999C23.1333 27.9999 27.4999 29.4666 28.2166 30.9666C25.8822 32.8266 22.9847 33.8375 19.9999 33.8333C16.8999 33.8333 14.0499 32.7666 11.7833 30.9666ZM30.5999 28.5499C28.2166 25.6499 22.4333 24.6666 19.9999 24.6666C17.5666 24.6666 11.7833 25.6499 9.39992 28.5499C7.62689 26.241 6.66603 23.4111 6.66659 20.4999C6.66659 13.1499 12.6499 7.16659 19.9999 7.16659C27.3499 7.16659 33.3333 13.1499 33.3333 20.4999C33.3333 23.5333 32.2999 26.3333 30.5999 28.5499ZM19.9999 10.4999C16.7666 10.4999 14.1666 13.0999 14.1666 16.3333C14.1666 19.5666 16.7666 22.1666 19.9999 22.1666C23.2333 22.1666 25.8333 19.5666 25.8333 16.3333C25.8333 13.0999 23.2333 10.4999 19.9999 10.4999ZM19.9999 18.8333C19.3369 18.8333 18.701 18.5699 18.2322 18.101C17.7633 17.6322 17.4999 16.9963 17.4999 16.3333C17.4999 15.6702 17.7633 15.0343 18.2322 14.5655C18.701 14.0966 19.3369 13.8333 19.9999 13.8333C20.663 13.8333 21.2988 14.0966 21.7677 14.5655C22.2365 15.0343 22.4999 15.6702 22.4999 16.3333C22.4999 16.9963 22.2365 17.6322 21.7677 18.101C21.2988 18.5699 20.663 18.8333 19.9999 18.8333Z" fill="black" fill-opacity="0.7"/>
</svg>
